<?xml version="1.0" encoding="UTF-8"?>
<svg width="104px" height="22px" viewBox="0 0 104 22" version="1.1" xmlns="http://www.w3.org/2000/svg" xmlns:xlink="http://www.w3.org/1999/xlink">
    <title>logo</title>
    <g id="Page-1" stroke="none" stroke-width="1" fill="none" fill-rule="evenodd">
        <g id="logo" transform="translate(0.000000, 0.000000)">
            <polygon id="Fill-1" fill="#54585A" points="14.9413333 21.6475319 18.1512793 21.6475319 18.1512793 7.06948936 14.9413333 7.06948936"></polygon>
            <path d="M24.6651928,9.96450213 L27.1457333,9.96450213 C27.7987784,9.96450213 28.3960757,10.0721617 28.9380937,10.2870128 C29.4796432,10.5023319 29.9420216,10.8042468 30.3238234,11.1932255 C30.7060937,11.5822043 31.0045081,12.0465447 31.2200036,12.5881191 C31.4354991,13.1292255 31.5432468,13.7199489 31.5432468,14.3579489 L31.5432468,14.4005447 C31.5432468,15.0535234 31.4354991,15.6428426 31.2200036,16.1708426 C31.0045081,16.6979064 30.7060937,17.1566298 30.3238234,17.5456085 C29.9420216,17.9336511 29.4796432,18.2327574 28.9380937,18.4401191 C28.3960757,18.648417 27.7987784,18.7528 27.1457333,18.7528 L24.6651928,18.7528 L24.6651928,9.96450213 Z M30.2821297,21.0848 C31.2335892,20.7108 32.0538775,20.1968426 32.7415892,19.5443319 C33.4293009,18.8918213 33.9610126,18.1213532 34.3362559,17.2329277 C34.7119676,16.3445021 34.899355,15.3863319 34.899355,14.3579489 L34.899355,14.3167574 C34.899355,13.2897787 34.7119676,12.3353532 34.3362559,11.4530128 C33.9610126,10.5720766 33.4293009,9.80535319 32.7415892,9.15190638 C32.0538775,8.49939574 31.2335892,7.98918298 30.2821297,7.62126809 C29.3306703,7.25335319 28.2850486,7.06939574 27.1457333,7.06939574 L21.4547784,7.06939574 L21.4547784,21.6474383 L27.1457333,21.6474383 C28.2850486,21.6474383 29.3306703,21.4602043 30.2821297,21.0848 L30.2821297,21.0848 Z" id="Fill-2" fill="#54585A"></path>
            <path d="M59.5219171,21.2001362 C60.0011604,20.9707745 60.4424577,20.6969447 60.8448721,20.3772426 C61.2482234,20.0580085 61.6375207,19.6966468 62.012764,19.2945617 L60.0175568,17.2803915 C59.1611964,18.3331149 57.8715027,19.0197957 56.4080072,19.0197957 C55.7263856,19.0197957 55.0841153,18.8662638 54.5004036,18.6041362 C54.4737009,18.591966 54.4423135,18.5882213 54.4160793,18.5760511 C54.2881874,18.5166043 54.1804396,18.4360936 54.0623856,18.3663489 C53.9541694,18.3036255 53.8426739,18.2469872 53.7400793,18.1758383 C53.6801153,18.1323064 53.6267099,18.080817 53.5690883,18.0340085 C52.4639712,17.1811574 51.7397189,15.8583489 51.7397189,14.3548596 C51.7397189,12.828434 52.4836468,11.486434 53.6173405,10.6354553 C53.6585658,10.6031574 53.6960432,10.5657106 53.7386739,10.5352851 C53.8749982,10.4402638 54.0244396,10.3653702 54.1710703,10.2843915 C54.2614847,10.2352426 54.3406559,10.1734553 54.4362234,10.1303915 C54.4512144,10.1233702 54.4680793,10.121966 54.4830703,10.1149447 C55.0714667,9.84813617 55.719827,9.69039149 56.4080072,9.69039149 C57.8279351,9.69039149 59.0834306,10.336817 59.9402595,11.3361787 L61.908764,9.06877447 C61.5756829,8.73549787 61.2130883,8.43077447 60.8247279,8.15226383 C60.4354306,7.87468936 60.0114667,7.63924255 59.5533045,7.44405106 C59.0946739,7.25026383 58.5840432,7.09766809 58.0209441,6.98579574 C57.458782,6.87532766 56.8361874,6.81962553 56.1559712,6.81962553 C55.0307099,6.81962553 54.0019532,7.01715745 53.0711063,7.41268936 C52.1402595,7.80868936 51.3415207,8.34979574 50.6739532,9.03741277 C50.0073225,9.7245617 49.4859171,10.523583 49.1106739,11.4321362 C48.7358991,12.3420936 48.5485117,13.317583 48.5485117,14.3581362 L48.5485117,14.4007319 C48.5485117,15.440817 48.7358991,16.4200511 49.1106739,17.3365617 C49.4859171,18.2526043 50.0073225,19.0474128 50.6739532,19.7214553 C51.3415207,20.3950298 52.1337009,20.9253702 53.0504937,21.3143489 C53.9672865,21.7023915 54.9604396,21.897583 56.0304216,21.897583 C56.7396829,21.897583 57.3782054,21.8381362 57.9483315,21.7201787 C58.5175207,21.6026894 59.0431423,21.4290298 59.5219171,21.2001362" id="Fill-4" fill="#54585A"></path>
            <path d="M80.6222054,18.7527532 L80.6222054,7.06981702 L77.411791,7.06981702 L77.411791,19.9716468 L77.411791,20.2730936 L77.411791,20.4261574 C77.411791,21.1006681 77.9589622,21.6478596 78.6344937,21.6478596 L78.8612324,21.6478596 L79.0889081,21.6478596 L87.8961153,21.6478596 L87.8961153,18.7527532 L80.6222054,18.7527532 Z" id="Fill-6" fill="#54585A"></path>
            <path d="M93.5339459,18.7527532 L93.5339459,7.06981702 L90.324,7.06981702 L90.324,19.9716468 L90.324,20.2730936 L90.324,20.4261574 C90.324,21.1006681 90.8711712,21.6478596 91.5467027,21.6478596 L91.7734414,21.6478596 L92.0011171,21.6478596 L100.808324,21.6478596 L100.808324,18.7527532 L93.5339459,18.7527532 Z" id="Fill-8" fill="#54585A"></path>
            <path d="M67.372418,18.7527532 L67.372418,15.7326681 L73.6578595,15.7326681 L73.6578595,12.8801574 L67.372418,12.8801574 L67.372418,11.1786681 L67.372418,9.96445532 L74.6463279,9.96445532 L74.6463279,7.06981702 L65.8395892,7.06981702 L65.611445,7.06981702 L65.3851748,7.06981702 C64.7096432,7.06981702 64.1620036,7.61654043 64.1620036,8.29105106 L64.1620036,8.44458298 L64.1620036,8.74509362 L64.1620036,11.1786681 L64.1620036,14.5442 L64.1620036,19.9716468 L64.1620036,20.2730936 L64.1620036,20.4261574 C64.1620036,21.1006681 64.7096432,21.6478596 65.3851748,21.6478596 L65.611445,21.6478596 L65.8395892,21.6478596 L74.6463279,21.6478596 L74.6463279,18.7527532 L67.372418,18.7527532 Z" id="Fill-10" fill="#54585A"></path>
            <path d="M39.7039676,18.7527532 L39.7039676,15.7326681 L45.989409,15.7326681 L45.989409,12.8801574 L39.7039676,12.8801574 L39.7039676,11.1786681 L39.7039676,9.96445532 L46.9778775,9.96445532 L46.9778775,7.06981702 L38.1706703,7.06981702 L37.9429946,7.06981702 L37.7162559,7.06981702 C37.0411928,7.06981702 36.4935532,7.61654043 36.4935532,8.29105106 L36.4935532,8.44458298 L36.4935532,8.74509362 L36.4935532,11.1786681 L36.4935532,14.5442 L36.4935532,19.9716468 L36.4935532,20.2730936 L36.4935532,20.4261574 C36.4935532,21.1006681 37.0411928,21.6478596 37.7162559,21.6478596 L37.9429946,21.6478596 L38.1706703,21.6478596 L46.9778775,21.6478596 L46.9778775,18.7527532 L39.7039676,18.7527532 Z" id="Fill-12" fill="#54585A"></path>
            <path d="M9.44132613,17.2017532 C9.44413694,17.1783489 9.45350631,17.1577532 9.46568649,17.1390298 C10.5253622,15.7717532 11.9607495,14.219583 12.0862991,12.360817 C12.102227,12.2026043 12.1120649,12.0429872 12.1120649,11.8810298 C12.1120649,11.1199234 11.9340468,10.4000085 11.6187676,9.76013617 C11.598155,9.71613617 11.5752,9.67400851 11.553182,9.63141277 C11.5166414,9.56260426 11.4786955,9.49473191 11.4388757,9.42779574 C11.4028036,9.36741277 11.3653261,9.30702979 11.3264432,9.24851915 C10.4663351,7.93741277 8.98363243,7.07005106 7.29714595,7.07005106 C7.21094775,7.07005106 2.32201081,7.07005106 1.92521802,7.07051915 C1.06557838,7.07145532 0.369434234,7.78668936 0.369434234,8.64562553 L0.369434234,9.39268936 L0.369434234,21.6476255 L3.57750631,21.6476255 L3.57750631,9.96234894 L6.66330811,9.96234894 C8.26031712,9.96234894 9.02345225,11.0220936 9.02345225,12.0223915 C9.02345225,13.251583 7.22406486,15.1145617 6.49606486,15.8817532 C6.2028036,16.1906894 5.94842523,16.5333277 5.90813694,16.9578809 C5.86784865,17.381966 6.00323604,17.8037106 6.28197477,18.1257532 L9.34201081,21.6476255 L13.2466955,21.6476255 C13.2466955,21.6476255 11.0758126,19.1606894 9.46521802,17.294434 C9.44413694,17.2700936 9.43757838,17.2359234 9.44132613,17.2017532" id="Fill-16" fill="#54585A"></path>
            <polygon id="Fill-14" fill="#6CC04A" points="99.4268577 10.8761915 103.701632 0.046106383 92.8626775 4.31738298 97.6719748 6.07082979"></polygon>
        </g>
    </g>
</svg>